<svg width="41" height="42" viewBox="0 0 41 42" fill="none" xmlns="http://www.w3.org/2000/svg">
<path d="M11.5814 0.161793L11.3491 0.320132V7.12872V13.9268H12.0353H12.7214V7.17095C12.7214 0.552363 12.7214 0.415136 12.5103 0.204017C12.2569 -0.0493259 11.9086 -0.0704384 11.5814 0.161793Z" fill="#00B6BD"/>
<path d="M3.64343 2.07242C3.40064 2.15687 3.22119 2.43132 3.22119 2.72689C3.22119 2.87467 4.06567 5.46088 5.0896 8.45877L6.96856 13.9268H7.72858C8.15082 13.9268 8.49917 13.9056 8.49917 13.8845C8.49917 13.7051 4.55124 2.33632 4.45624 2.24132C4.2979 2.08298 3.85455 1.98797 3.64343 2.07242Z" fill="#00B6BD"/>
<path d="M19.6992 2.1787C19.5408 2.31593 18.9075 4.0471 17.5246 8.06892C16.4479 11.204 15.5718 13.8114 15.5718 13.8536C15.5718 13.8958 15.9201 13.9275 16.3424 13.9064L17.1024 13.8747L18.9708 8.43838C19.9947 5.45105 20.8392 2.87539 20.8498 2.71705C20.8498 2.5376 20.7548 2.35815 20.5753 2.22092C20.227 1.94647 19.9947 1.94647 19.6992 2.1787Z" fill="#00B6BD"/>
<path d="M28.9985 12.6393C27.0035 15.6689 25.8951 18.8462 26.2223 20.6091C26.444 21.8336 27.2146 22.8575 28.3229 23.3958C28.8507 23.6597 29.0408 23.6914 29.9275 23.6914C30.8142 23.6914 31.0042 23.6597 31.532 23.3958C32.3237 23.0053 32.9465 22.3614 33.3476 21.5274C33.6326 20.9152 33.6643 20.7463 33.6643 19.8913C33.6431 18.2973 33.0415 16.4289 31.8592 14.2966C31.1942 13.0932 30.0541 11.3937 29.9169 11.3937C29.8641 11.3937 29.4524 11.9532 28.9985 12.6393Z" fill="#00B6BD"/>
<path d="M4.29777 15.3203C4.10776 15.5103 4.11832 18.0859 4.31888 18.2443C4.41389 18.3287 6.54619 18.3498 12.0986 18.3393L19.7411 18.3076V16.777V15.2464L12.0881 15.2147C6.21895 15.1936 4.39277 15.2253 4.29777 15.3203Z" fill="#00B6BD"/>
<path d="M6.28223 20.5246V21.4219H12.0352H17.7882V20.5246V19.6274H12.0352H6.28223V20.5246Z" fill="#00B6BD"/>
<path d="M1.97551 22.9627C1.01492 23.4377 0.476562 24.3772 0.476562 25.5595V26.0662L7.71795 26.0873L14.9593 26.1189L15.1599 26.3723C15.3499 26.6045 15.3605 26.8684 15.3605 32.5159C15.3605 38.2794 15.3605 38.4166 15.1493 38.6278C14.9382 38.8389 14.801 38.8389 7.70739 38.8389H0.476562V39.2611C0.476562 39.9367 0.846021 40.7706 1.37382 41.2562C2.21829 42.0373 1.90162 42.0057 11.3386 41.9845L19.7201 41.9529L19.1078 41.4462C18.3056 40.7917 17.4716 39.8311 17.4716 39.5778C17.4716 39.0817 19.2134 37.4772 20.4484 36.8438L21.2507 36.4321L20.8812 35.8726C19.8573 34.3631 19.3717 32.8009 19.2978 30.8058C19.2239 28.9057 19.2134 28.9163 20.8284 28.9163C21.4512 28.9163 22.2852 28.9902 22.6968 29.0746C23.098 29.1591 23.478 29.233 23.5202 29.233C23.573 29.233 23.5941 28.1985 23.573 26.9318C23.5413 24.81 23.5202 24.6094 23.3091 24.2083C23.003 23.6277 22.4857 23.1211 21.9579 22.8888C21.5568 22.6988 21.0079 22.6883 12.0248 22.6883H2.52442L1.97551 22.9627Z" fill="#00B6BD"/>
<path d="M29.3157 26.858C27.8378 28.4731 27.0778 30.7109 27.215 33.0121C27.2995 34.2999 27.5001 35.0494 28.0806 36.2528C28.5451 37.2239 29.6535 38.6807 29.9279 38.6807C30.1707 38.6807 31.2474 37.3189 31.7119 36.4322C33.3269 33.3182 32.8519 29.3809 30.5402 26.858C30.2552 26.5413 29.9701 26.2774 29.9279 26.2774C29.8857 26.2774 29.6007 26.5413 29.3157 26.858Z" fill="#00B6BD"/>
<path d="M0.476562 32.4526V37.5723H7.28515H14.0937V32.4526V27.333H7.28515H0.476562V32.4526Z" fill="#00B6BD"/>
<path d="M20.4906 30.9967C20.7545 34.1635 22.5068 36.8025 25.2302 38.1114C26.138 38.5548 27.6475 38.977 28.0803 38.9242L28.3337 38.8926L27.922 38.3542C26.708 36.7603 25.9163 34.438 25.9163 32.4534C25.9163 31.8095 25.9058 31.7884 25.5258 31.5245C24.3963 30.7434 22.6018 30.1839 21.2612 30.1839H20.4272L20.4906 30.9967Z" fill="#00B6BD"/>
<path d="M36.8948 30.4046C36.0292 30.6262 34.9419 31.1013 34.3508 31.5129L33.9708 31.7768L33.9074 32.8535C33.7808 34.8697 33.2213 36.4954 32.0918 38.1104L31.5112 38.9443H31.8068C32.3557 38.9443 33.7596 38.5327 34.6252 38.1104C37.3487 36.812 39.101 34.1625 39.3649 30.9957L39.4282 30.1829L38.5521 30.1934C38.0454 30.1934 37.3592 30.2779 36.8948 30.4046Z" fill="#00B6BD"/>
<path d="M21.0605 37.8996C20.5221 38.174 19.9521 38.5646 19.551 38.9552L18.8965 39.578L19.551 40.2008C20.6699 41.2775 22.4855 42.0059 24.0161 42.0059C25.3145 42.0059 27.1935 41.3408 28.1224 40.5491L28.4918 40.243L27.8479 40.1691C26.0323 39.9686 24.1745 39.1452 22.6333 37.8679C22.3588 37.6463 22.0949 37.4668 22.0316 37.4668C21.9788 37.4668 21.5355 37.6568 21.0605 37.8996Z" fill="#00B6BD"/>
<path d="M37.3168 37.794C35.8285 39.0713 33.8439 39.958 32.0072 40.1691L31.3633 40.243L31.7327 40.5491C32.6617 41.3408 34.5406 42.0059 35.839 42.0059C37.3696 42.0059 39.1852 41.2775 40.3042 40.2008L40.9586 39.578L40.3042 38.9552C39.713 38.3957 38.1508 37.4562 37.8024 37.4668C37.7391 37.4668 37.5174 37.6146 37.3168 37.794Z" fill="#00B6BD"/>
</svg>
