<svg width="42" height="42" viewBox="0 0 42 42" fill="none" xmlns="http://www.w3.org/2000/svg">
<path d="M10.369 0.328123C9.9014 0.516796 9.926 0.0902328 9.926 8.55586C9.926 16.8164 9.9178 16.7016 10.2951 16.8492C10.369 16.8738 15.2006 16.8984 21.033 16.8984C31.6397 16.8984 31.6397 16.8984 31.8612 16.7262L32.0744 16.5621V8.58047V0.598827L31.9022 0.442968C31.7381 0.295311 31.4264 0.287107 21.1315 0.270702C15.2662 0.262499 10.4592 0.287107 10.369 0.328123ZM22.2307 2.64961C23.8713 3.46172 24.101 5.69297 22.6573 6.86601C21.3283 7.94883 19.4662 7.46484 18.728 5.85703C18.2112 4.7168 18.7033 3.29766 19.8436 2.67422C20.6557 2.23945 21.3694 2.23125 22.2307 2.64961ZM20.2455 8.35078C20.2948 8.3918 20.4916 8.71992 20.6721 9.08906C20.8444 9.4582 21.0248 9.76172 21.0658 9.76172C21.0987 9.76172 21.2545 9.49922 21.4104 9.1875C21.8205 8.33437 21.9354 8.25234 22.6326 8.30156C23.6416 8.37539 24.6506 8.96601 25.3151 9.86836C25.8155 10.541 26.0041 11.2055 26.0616 12.477C26.119 13.6418 26.0616 14.052 25.8319 14.2816C25.6842 14.4293 25.5201 14.4375 21.0494 14.4375H16.4147L16.2506 14.2242C16.0948 14.0273 16.0783 13.8961 16.0783 12.8461C16.0783 11.1316 16.3162 10.3852 17.1283 9.49922C17.6369 8.94961 18.0881 8.6625 18.769 8.44102C19.253 8.28516 20.0651 8.23594 20.2455 8.35078Z" fill="#00B6BD"/>
<path d="M20.5078 3.66719C20.0238 3.84766 19.6137 4.44649 19.6055 4.95508C19.6055 5.37344 19.9172 5.89024 20.2945 6.11172C20.9508 6.49727 21.7137 6.3168 22.1484 5.68516C22.7391 4.82383 22.05 3.59336 20.9918 3.61797C20.7949 3.61797 20.5734 3.64258 20.5078 3.66719Z" fill="#00B6BD"/>
<path d="M19.023 9.63047C18.3012 9.88477 17.8336 10.3195 17.5055 11.0332C17.3332 11.3859 17.3086 11.5746 17.3086 12.3621V13.2891H21.082H24.8555V12.4688C24.8555 11.4023 24.6668 10.8773 24.0844 10.2867C23.6906 9.90117 22.9605 9.51563 22.5996 9.51563C22.5258 9.51563 22.2879 9.91758 21.9926 10.541C21.5824 11.4023 21.4758 11.5664 21.2871 11.6156C20.8195 11.7305 20.6637 11.591 20.1059 10.5164C19.5562 9.45 19.548 9.4418 19.023 9.63047Z" fill="#00B6BD"/>
<path d="M6.825 17.8011C6.25898 18.0882 5.75039 18.6378 5.56992 19.171C5.5043 19.3433 5.45508 19.737 5.45508 20.0569C5.45508 21.0413 5.98828 21.8944 6.88242 22.3292C7.42383 22.5999 8.49023 22.5999 9.03164 22.3292C10.8527 21.4351 10.943 18.8347 9.1957 17.8503C8.81016 17.6452 8.63789 17.596 8.04727 17.5714C7.38281 17.5468 7.30898 17.555 6.825 17.8011Z" fill="#00B6BD"/>
<path d="M33.198 17.6698C32.1645 18.039 31.541 18.9495 31.541 20.0569C31.5492 21.0413 32.0906 21.9026 32.9684 22.3292C33.5098 22.5999 34.5762 22.5999 35.1176 22.3292C36.0117 21.8944 36.5449 21.0413 36.5449 20.0569C36.5367 19.3515 36.4137 18.9823 36.0117 18.4655C35.5441 17.8749 34.8633 17.555 34.0922 17.555C33.7723 17.5632 33.3703 17.6124 33.198 17.6698Z" fill="#00B6BD"/>
<path d="M15.9386 20.4756C15.4874 20.6397 14.905 21.1647 14.6917 21.5994C14.4702 22.0506 11.4679 38.6783 11.4679 39.433C11.4597 40.3436 11.9929 41.1311 12.8706 41.5412C13.2479 41.7135 13.3218 41.7135 20.7046 41.7381C25.446 41.7545 28.3171 41.7299 28.6042 41.6807C29.4409 41.5248 30.0644 41.0736 30.3925 40.401C30.7206 39.7119 30.7042 39.5643 29.162 30.5983C28.3745 25.9717 27.6608 22.026 27.587 21.8291C27.4229 21.3861 26.9061 20.8037 26.455 20.5658C26.1269 20.3854 26.0776 20.3854 21.205 20.369C17.0132 20.3608 16.2339 20.369 15.9386 20.4756Z" fill="#00B6BD"/>
<path d="M6.07031 22.8375C5.10234 23.059 4.31484 23.6168 3.76523 24.4699C3.33867 25.1262 3.19922 25.807 3.19922 27.1934C3.19922 28.268 3.20742 28.3172 3.4043 28.5059L3.60117 28.7109H7.95703H12.3129L12.5098 28.5059C12.7066 28.3172 12.7148 28.268 12.7148 27.177C12.7148 26.4551 12.6656 25.8563 12.5918 25.5199C12.2391 24.0352 11.1152 23.0098 9.61406 22.7883C8.79375 22.6652 8.59687 22.7555 8.25234 23.3953C8.11289 23.6578 7.97344 23.8711 7.94883 23.8711C7.92422 23.8711 7.83398 23.7316 7.76016 23.5594C7.49766 22.9852 7.29258 22.7883 6.89062 22.7555C6.68555 22.7391 6.31641 22.7719 6.07031 22.8375Z" fill="#00B6BD"/>
<path d="M32.1398 22.8539C30.7371 23.1902 29.6707 24.2812 29.3754 25.6594C29.3262 25.8973 29.2852 26.5863 29.2852 27.1852C29.2852 28.1695 29.3016 28.3008 29.4574 28.4977L29.6215 28.7109H34.0348H38.4398L38.6695 28.473L38.891 28.2352L38.8664 26.857C38.8418 25.4953 38.8336 25.4625 38.5793 24.9211C38.0051 23.707 36.8812 22.9031 35.5523 22.7637C34.9207 22.698 34.7238 22.8129 34.4121 23.4035C34.2809 23.6578 34.1414 23.8711 34.1168 23.8711C34.0922 23.8711 33.9445 23.6496 33.7969 23.3707C33.4359 22.6898 33.157 22.6078 32.1398 22.8539Z" fill="#00B6BD"/>
<path d="M4.59402 30.5897C3.82292 30.844 3.14207 31.4674 2.92058 32.1319C2.74832 32.6323 2.75652 33.4198 2.92878 33.9283C3.11746 34.478 3.83113 35.1916 4.38074 35.3803C4.88933 35.5526 5.67683 35.5608 6.17722 35.3885C6.66941 35.2244 7.25183 34.6994 7.53074 34.1744C7.71941 33.8135 7.75222 33.6576 7.75222 33.0178C7.75222 32.4108 7.71941 32.2221 7.56355 31.935C7.08777 31.0408 6.3823 30.5815 5.41433 30.5405C5.078 30.5323 4.70886 30.5487 4.59402 30.5897Z" fill="#00B6BD"/>
<path d="M35.9627 30.5979C35.2326 30.8276 34.4779 31.6069 34.2811 32.3451C34.1416 32.8701 34.2318 33.6823 34.4779 34.1744C34.7404 34.6994 35.3229 35.2162 35.8233 35.3885C36.3236 35.5608 37.1111 35.5526 37.6197 35.3803C38.1693 35.1916 38.883 34.478 39.0717 33.9283C39.244 33.4198 39.2522 32.6323 39.0799 32.1319C38.9076 31.6315 38.3908 31.049 37.8658 30.7865C37.3983 30.5487 36.4385 30.4502 35.9627 30.5979Z" fill="#00B6BD"/>
<path d="M2.98603 35.9297C2.09189 36.2414 1.329 36.9223 0.910643 37.7754C0.598924 38.3988 0.459471 39.3996 0.50869 40.5891C0.533299 41.2371 0.566112 41.3766 0.721971 41.5324L0.910643 41.7129H5.29931H9.69619L9.85205 41.516C9.9915 41.3438 10.0079 41.1797 10.0079 40.0313C10.0079 38.973 9.9751 38.6449 9.84385 38.2184C9.54033 37.234 8.87588 36.4875 7.90791 36.0363C7.53056 35.8559 7.27627 35.8066 6.72666 35.782C5.93096 35.7492 5.91455 35.7574 5.5126 36.4875L5.27471 36.9141L5.04502 36.4875C4.66767 35.782 4.64306 35.7656 3.98681 35.7738C3.65049 35.7738 3.23213 35.8395 2.98603 35.9297Z" fill="#00B6BD"/>
<path d="M34.4941 35.9138C33.5097 36.2583 32.7386 36.9474 32.2956 37.8825C32.0413 38.4157 32.0331 38.4649 32.0085 39.7692C31.9921 40.4993 32.0003 41.1966 32.0249 41.3114C32.1398 41.7462 32.2628 41.7626 36.873 41.738L41.0894 41.7134L41.2781 41.5329C41.4339 41.377 41.4667 41.2376 41.4913 40.5895C41.5652 38.7849 41.2535 37.661 40.4331 36.7915C39.8097 36.127 39.1453 35.8235 38.2347 35.7825C37.4308 35.7415 37.4144 35.7497 37.0124 36.488L36.7746 36.9145L36.5449 36.488C36.1757 35.7825 36.1429 35.7661 35.4867 35.7661C35.1503 35.7743 34.732 35.8317 34.4941 35.9138Z" fill="#00B6BD"/>
</svg>
