<svg width="36" height="36" viewBox="0 0 36 36" fill="none" xmlns="http://www.w3.org/2000/svg">
<path d="M32.9335 1.28307L31.906 2.30079H28.9207C25.7319 2.30079 25.5768 2.32018 25.2376 2.8048C24.9371 3.23127 25.1309 4.10361 25.5574 4.33623C25.664 4.39438 26.4394 4.43315 27.3699 4.43315C28.8529 4.43315 28.9789 4.44284 28.9401 4.59793C28.9207 4.69485 28.3586 7.47662 27.6995 10.7818L26.4976 16.8009L23.5898 16.4325C21.9809 16.229 20.5754 16.0642 20.4591 16.0642C20.3041 16.0642 19.5674 16.8881 17.4447 19.4372L14.6242 22.8102L14.6824 23.731C14.7696 25.2334 14.3334 26.4546 13.3157 27.5499C11.668 29.3236 8.89591 29.6823 6.87016 28.3835C5.40659 27.4433 4.53426 25.844 4.53426 24.1381C4.53426 22.6358 4.98011 21.5405 5.98814 20.5228C7.0834 19.4178 8.37251 18.9138 9.86516 19.0011C10.6212 19.0398 11.7261 19.35 11.8424 19.5439C11.8715 19.5826 11.6195 19.9509 11.29 20.358C10.7278 21.0559 10.6696 21.0947 10.3983 21.0268C9.36115 20.7845 8.10112 21.1237 7.37418 21.8507C6.54062 22.6842 6.24015 24.08 6.65693 25.1849C6.93801 25.9119 7.50987 26.5516 8.19804 26.8908C8.68267 27.1234 8.85714 27.1622 9.62285 27.1622C10.3498 27.1622 10.5727 27.1234 10.9798 26.9199C11.6195 26.6097 12.1526 26.0476 12.4628 25.3788C12.7826 24.6809 12.8311 23.4887 12.55 22.9266C12.4434 22.723 12.3852 22.5292 12.4046 22.4807C12.4143 22.4322 14.2365 20.232 16.4367 17.5956L20.4494 12.7881L21.4478 12.7494C22.4073 12.7203 22.4655 12.7106 22.7466 12.4392C22.9986 12.1969 23.047 12.0806 23.047 11.6735C23.047 11.2858 22.9986 11.1598 22.766 10.9175L22.4849 10.6364H18.9083H15.3318L15.0604 10.9078C14.7308 11.2664 14.6436 11.7704 14.8471 12.1678C15.0991 12.6524 15.4384 12.7688 16.553 12.7688C17.0861 12.7688 17.5223 12.7881 17.5223 12.8172C17.5223 12.9044 15.4675 15.3373 15.3608 15.3761C15.1767 15.4439 10.689 14.872 10.5824 14.7654C10.4952 14.6782 8.89591 6.95322 8.89591 6.63336C8.89591 6.59459 9.57439 6.56551 10.3983 6.56551C12.0848 6.56551 12.3658 6.48797 12.6372 5.96458C12.8408 5.56718 12.7535 5.06317 12.424 4.70454L12.1526 4.43315H7.53895H2.92529L2.6539 4.70454C2.32435 5.06317 2.23712 5.56718 2.44066 5.96458C2.72175 6.50736 2.97376 6.56551 4.90257 6.56551C6.62785 6.56551 6.64723 6.56551 6.6957 6.77875C6.72478 6.90475 7.0834 8.69788 7.49049 10.7818C7.89758 12.856 8.24651 14.6394 8.27559 14.7266C8.31435 14.8623 8.27559 14.9011 8.09143 14.9011C7.66495 14.9011 6.39523 15.2694 5.65859 15.6184C3.44869 16.6361 1.66526 18.5358 0.860777 20.736C0.405227 21.9767 0.327687 22.4613 0.317994 24.0606C0.317994 25.3788 0.356764 25.7374 0.540923 26.4256C0.957703 27.9473 1.84942 29.5369 2.83806 30.5061L3.27422 30.9326L1.77188 32.4446C0.376149 33.8598 0.269531 33.9858 0.269531 34.325C0.269531 34.7418 0.482768 35.207 0.744467 35.3524C0.851085 35.4009 1.14186 35.4493 1.39387 35.4493H1.85911L3.47777 33.8404L5.08673 32.2314L5.67798 32.5319C6.58908 32.9971 7.84911 33.3267 8.89591 33.3848C10.2432 33.4527 27.7286 31.3009 28.5621 30.9617L29.1049 30.7291L31.4796 33.0747C33.9706 35.5463 34.0772 35.6141 34.7363 35.4396C35.1918 35.304 35.4535 34.9356 35.4535 34.4025C35.4535 33.9664 35.4438 33.9567 33.9318 32.4059C33.0885 31.5432 32.0999 30.5352 31.7316 30.1475L31.0531 29.4496L31.5086 28.965C33.4278 26.9102 33.9706 23.7407 32.8268 21.1528C32.1871 19.6892 30.9174 18.3517 29.5314 17.6829C29.0274 17.4406 28.6784 17.2176 28.6784 17.1304C28.6687 17.0044 30.9756 5.34425 31.1403 4.64639C31.1888 4.44284 31.2373 4.43315 32.032 4.43315H32.8753L34.1644 3.14404L35.4535 1.85493V1.38969C35.4535 1.13768 35.4051 0.846905 35.3566 0.740288C35.2112 0.478588 34.746 0.26535 34.3292 0.26535C33.9996 0.26535 33.8736 0.362278 32.9335 1.28307Z" fill="#00B6BD"/>
</svg>
