<svg width="42" height="37" viewBox="0 0 42 37" fill="none" xmlns="http://www.w3.org/2000/svg">
<path d="M31.3851 0.873371C30.9175 1.04564 30.5484 1.34915 30.2941 1.79212L30.0644 2.17767L30.0398 6.60736C30.0152 11.5538 29.9988 11.439 30.5894 12.087C31.1308 12.6941 31.3769 12.7515 33.4031 12.7843L35.1914 12.8171L35.2078 21.7011L34.9863 35.5321L35.1832 35.7454C35.4292 35.9997 35.782 36.0899 36.1019 35.9586C36.6105 35.7454 36.5859 36.2375 36.832 21.6273V12.8171L38.6203 12.7843C40.63 12.7515 40.8761 12.6941 41.4503 12.1034C42.0246 11.5128 42.0082 11.6359 41.9835 6.60736C41.9589 2.30892 41.9507 2.08744 41.8031 1.84954C41.5324 1.43939 41.2371 1.14407 40.8925 0.963604C40.5726 0.783134 40.4988 0.783138 36.1347 0.766731C32.4351 0.750324 31.6558 0.766731 31.3851 0.873371ZM37.1847 3.27689C38.1117 3.50657 38.7187 4.27767 38.7843 5.29486C38.8499 6.32845 38.4152 7.15696 37.5867 7.55892C37.2667 7.71478 37.0289 7.74759 36.1347 7.7804C35.5523 7.79681 35.0027 7.84603 34.9289 7.88704C34.7976 7.96087 34.7812 8.10032 34.7812 9.05189C34.7812 9.79017 34.7484 10.1757 34.6828 10.2413C34.6253 10.2988 34.3464 10.3398 33.9855 10.3398C33.4851 10.3398 33.3785 10.3152 33.3046 10.1839C33.2554 10.0773 33.2226 8.84681 33.2226 6.7386C33.2226 3.49017 33.2226 3.44915 33.3949 3.27689C33.5671 3.10462 33.6164 3.09642 35.2242 3.14564C36.1347 3.17025 37.0125 3.22767 37.1847 3.27689Z" fill="#00B6BD"/>
<path d="M34.8387 4.49102C34.8059 4.51563 34.7813 4.95859 34.7813 5.45898C34.7813 6.61563 34.773 6.60742 35.7656 6.5418C36.9879 6.45156 37.2504 6.26289 37.2504 5.45898C37.2504 4.62227 36.9715 4.43359 35.7 4.43359C35.257 4.43359 34.8633 4.4582 34.8387 4.49102Z" fill="#00B6BD"/>
<path d="M7.16133 13.1045C6.53789 13.2768 6.15234 13.49 5.64375 13.9576C5.08594 14.4662 4.94648 14.7287 4.01953 17.001C3.60117 18.0182 3.24023 18.8713 3.20742 18.9041C3.18281 18.9369 2.83008 18.8631 2.41992 18.7482C1.12383 18.3791 0.639844 18.4611 0.180469 19.1338C0.0164062 19.3717 0 19.5029 0 20.3396C0 21.3486 0.0984375 21.685 0.508594 22.0623C0.746484 22.2838 1.23867 22.4971 1.52578 22.4971C1.69805 22.4971 1.73086 22.5299 1.68164 22.6365C1.46016 23.2025 1.13203 24.31 0.976172 24.999C0.803906 25.7783 0.795703 26.0326 0.762891 30.4213C0.738281 33.6533 0.754687 35.1299 0.820312 35.3678C0.935156 35.7943 1.33711 36.2619 1.76367 36.4506C2.04258 36.5818 2.31328 36.6064 3.52734 36.6064C5.15156 36.6064 5.41406 36.5326 5.88164 36.0076C6.20977 35.6303 6.31641 35.1299 6.31641 33.9404V32.9971H15.5367H24.7652L24.7898 34.2604C24.8145 35.5154 24.8145 35.5318 25.0605 35.8764C25.2 36.065 25.4707 36.3111 25.6758 36.4178C26.0367 36.6064 26.0941 36.6146 27.6199 36.59L29.1867 36.5654L29.5477 36.3193C29.7527 36.1717 29.9742 35.9174 30.0891 35.7041L30.2695 35.3432V30.7822C30.2695 25.6225 30.2367 25.2287 29.6215 23.4322L29.318 22.5135L29.6789 22.4725C30.1547 22.4232 30.6551 22.0623 30.9012 21.6029C31.0652 21.2912 31.0898 21.1189 31.0898 20.3889C31.0898 19.4045 30.9914 19.0846 30.5895 18.7893C30.1629 18.4693 29.8348 18.4447 28.9078 18.6826C28.4648 18.7975 28.0383 18.9123 27.9645 18.9369C27.8578 18.9697 27.6609 18.5596 26.9883 16.9189C26.5207 15.7869 26.0367 14.6959 25.9055 14.499C25.5937 14.0314 25.0687 13.6131 24.3879 13.285L23.8301 13.0225L15.709 13.0061C8.90039 12.9896 7.52227 13.0061 7.16133 13.1045ZM23.0918 14.5893C23.8465 14.9994 23.9121 15.1143 25.282 18.4447C25.9875 20.1592 26.5945 21.6604 26.6191 21.7834C26.7094 22.1279 26.6027 22.4068 26.3074 22.5791C26.0531 22.7432 25.8398 22.7432 15.5203 22.7432C3.86367 22.7432 4.61836 22.776 4.42969 22.21C4.32305 21.89 4.29844 21.9721 6.17695 17.4193C7.17773 15.0158 7.37461 14.7287 8.28516 14.4498C8.4 14.417 11.7059 14.3924 15.627 14.4006C22.7555 14.417 22.7637 14.417 23.0918 14.5893ZM9.68789 26.5084C9.82734 26.6807 9.84375 26.8447 9.84375 28.0424C9.84375 29.2729 9.82734 29.4041 9.67969 29.5518C9.58945 29.642 9.43359 29.7322 9.33516 29.7568C9.22852 29.7814 8.06367 29.7979 6.75117 29.7814C3.73242 29.7486 3.98672 29.8963 3.95391 28.1326C3.9293 26.7873 3.97852 26.5658 4.34766 26.3771C4.50352 26.2951 5.15156 26.2705 7.03828 26.2869L9.53203 26.3115L9.68789 26.5084ZM26.8406 26.5002C27.0211 26.6807 27.0293 26.7381 27.0293 28.0342C27.0293 29.9209 27.3 29.7486 24.2074 29.7814C22.6652 29.7979 21.6809 29.7732 21.5414 29.7158C21.1559 29.5682 21.0656 29.1908 21.0984 27.8701C21.123 26.6479 21.1723 26.5002 21.5332 26.3443C21.6234 26.3115 22.8129 26.2869 24.1746 26.2951C26.6355 26.3115 26.6602 26.3115 26.8406 26.5002Z" fill="#00B6BD"/>
</svg>
