<svg width="38" height="38" viewBox="0 0 38 38" fill="none" xmlns="http://www.w3.org/2000/svg">
<path d="M12.8639 0.789064C10.8542 1.32227 9.18074 3.00391 8.66395 5.02188C8.50809 5.63711 8.49989 5.97344 8.49989 14.8738C8.49989 25.0457 8.46707 24.3977 9.01668 24.9801C9.40223 25.382 9.83699 25.5625 10.4686 25.5625C11.1003 25.5625 11.535 25.382 11.9206 24.9801C12.3718 24.5043 12.4374 24.2336 12.4374 22.8555V21.625H17.6874H22.9374V22.8555C22.9374 24.2336 23.003 24.5043 23.4542 24.9801C23.8397 25.382 24.2745 25.5625 24.9061 25.5625C25.5378 25.5625 25.9725 25.382 26.3581 24.9801C26.8995 24.4059 26.8749 24.8242 26.8749 16.9492V9.8125H32.1249H37.3749V8.5V7.1875H36.0624H34.7499V6.42461C34.7499 4.8332 34.1921 3.5043 33.0272 2.34766C31.8378 1.15821 30.5499 0.625002 28.8436 0.625002C27.1374 0.625002 25.8495 1.15821 24.66 2.34766C23.4952 3.5043 22.9374 4.8332 22.9374 6.42461V7.1875H21.6249H20.3124V6.42461C20.3124 5.92422 20.255 5.43203 20.1483 5.02188C19.6315 2.9875 17.9499 1.30586 15.9155 0.789064C15.0706 0.567579 13.7007 0.575783 12.8639 0.789064ZM15.1854 4.80039C15.8745 5.12031 16.2436 5.71094 16.3421 6.6461L16.3995 7.1875H14.4061H12.4128L12.4702 6.63789C12.5604 5.74375 12.9378 5.14492 13.6268 4.78399C13.9714 4.60352 14.7753 4.61172 15.1854 4.80039ZM29.6229 4.80039C30.312 5.12031 30.6811 5.71094 30.7796 6.6461L30.837 7.1875H28.8436H26.8503L26.9077 6.63789C26.9979 5.74375 27.3753 5.14492 28.0643 4.78399C28.4089 4.60352 29.2128 4.61172 29.6229 4.80039ZM22.9374 11.125V12.4375H17.6874H12.4374V11.125V9.8125H17.6874H22.9374V11.125ZM22.9374 17.0312V19H17.6874H12.4374V17.0312V15.0625H17.6874H22.9374V17.0312Z" fill="#00B6BD"/>
<path d="M0.625 8.5V9.8125H3.25H5.875V8.5V7.1875H3.25H0.625V8.5Z" fill="#00B6BD"/>
<path d="M16.334 25.6937C15.3742 25.866 14.7098 26.0793 12.9297 26.793C10.3047 27.843 9.22187 28.1137 7.7207 28.1137C6.31797 28.1055 5.875 28.007 3.74219 27.1621C2.24102 26.5715 0.977734 26.1367 0.739844 26.1367C0.641406 26.1367 0.625 26.3664 0.625 27.5066V28.8848L2.08516 29.4508C5.29258 30.6895 6.03086 30.8535 8.08984 30.7879C10.0258 30.7223 11.002 30.4762 14.0781 29.2539C15.8746 28.5402 16.3996 28.3926 17.5398 28.2695C18.4422 28.1711 19.6152 28.2613 20.5422 28.5074C20.8457 28.5895 21.8465 28.9504 22.7734 29.3195C25.7348 30.4844 27.0883 30.8125 28.9668 30.8125C30.7469 30.8125 31.682 30.591 34.2578 29.5656C35.0453 29.2457 36.0625 28.8684 36.5137 28.7125L37.334 28.4418L37.3586 27.0719L37.375 25.7102L37.0305 25.7676C36.3742 25.866 35.2914 26.2352 33.4703 26.957C30.8945 27.9906 30.427 28.1055 28.9668 28.1137C27.441 28.1137 26.432 27.8594 23.7578 26.793C21.9367 26.0629 21.3133 25.866 20.2797 25.6855C19.3609 25.5297 17.2363 25.5297 16.334 25.6937Z" fill="#00B6BD"/>
<path d="M16.6211 32.2156C15.6613 32.3714 14.718 32.6585 13.3398 33.2082C10.075 34.5207 8.54922 34.8652 6.95781 34.6765C5.93242 34.5535 5.48125 34.414 3.61094 33.6839C2.1918 33.1261 0.920312 32.6996 0.690625 32.6996C0.649609 32.6996 0.625 33.323 0.625 34.0859V35.4722L0.936719 35.5789C1.10078 35.6281 1.9375 35.948 2.79062 36.2843C3.64375 36.6207 4.69375 36.9816 5.12852 37.0882C6.80195 37.5148 8.60664 37.5066 10.3867 37.0882C11.5516 36.8093 11.7812 36.7273 13.9387 35.8824C16.2355 34.98 16.859 34.8324 18.3438 34.8324C19.8367 34.8324 20.4109 34.98 22.8965 35.9398C26.1203 37.1949 27.9004 37.5558 29.8691 37.3753C31.1816 37.2523 32.084 36.9898 34.4383 36.071C35.5949 35.6117 36.727 35.2015 36.9566 35.1441L37.375 35.0539V33.6675V32.2894L37.0305 32.3386C36.4562 32.4289 35.5211 32.7324 34.1266 33.2738C30.632 34.6355 30.4434 34.6847 29.0078 34.6929C27.4328 34.6929 26.35 34.414 23.3477 33.2164C21.7727 32.5847 21.2887 32.4371 20.1977 32.2484C19.402 32.1171 17.3758 32.0925 16.6211 32.2156Z" fill="#00B6BD"/>
</svg>
