<svg width="36" height="39" viewBox="0 0 36 39" fill="none" xmlns="http://www.w3.org/2000/svg">
<path d="M18.6909 0.0316334C18.1746 0.140843 17.7973 0.617399 17.7973 1.15352C17.7973 1.43152 17.8668 1.66979 17.9959 1.82864L18.1845 2.07685L17.3406 2.14635C12.8729 2.48391 8.55413 5.09504 6.05221 8.95712C4.86082 10.8038 4.09635 12.8192 3.81836 14.8942L3.729 15.5098H18.7107C26.9412 15.5098 33.6825 15.4899 33.6825 15.4701C33.6825 15.2218 33.3251 13.4745 33.1365 12.8093C31.9947 8.8082 28.9964 5.32339 25.1343 3.50652C23.7642 2.86118 22.692 2.53355 21.1034 2.27542L19.8028 2.05699L19.9915 1.81872C20.1106 1.66979 20.1801 1.43152 20.1801 1.15352C20.1801 0.38905 19.4851 -0.137147 18.6909 0.0316334ZM14.1636 5.51202C14.4614 5.73044 14.3125 5.98858 13.6771 6.31621C12.8729 6.7332 12.2574 7.17004 11.5525 7.8253C10.9468 8.38129 10.7086 8.46071 10.51 8.14301C10.4206 8.00401 10.4802 7.8948 10.7979 7.55724C11.4333 6.91191 12.4063 6.16729 13.1708 5.76023C13.9849 5.33331 13.9352 5.34324 14.1636 5.51202ZM9.49731 9.71167C9.70581 9.92016 9.70581 9.95988 9.35832 10.4265C9.05054 10.8534 8.77255 10.9527 8.57399 10.7045C8.44492 10.5456 8.50449 10.357 8.88176 9.82088C9.10018 9.51311 9.27889 9.48332 9.49731 9.71167Z" fill="#00B6BD"/>
<path d="M1.54496 16.354C1.47546 16.5427 1.58468 17.5851 1.72367 18.1113C1.77331 18.3099 1.93216 18.568 2.08109 18.6772C2.32929 18.8758 2.45836 18.8857 5.18863 18.8857H8.03803L8.32595 18.3198C8.56423 17.8433 8.70323 17.7043 9.15993 17.466C9.61662 17.2277 9.79533 17.188 10.2322 17.2178C10.947 17.2774 11.5129 17.6844 11.8406 18.3695L12.0888 18.8857H19.7534H27.418L27.7853 18.6375C28.4505 18.1908 29.1753 18.1908 29.771 18.6375L30.0986 18.8857H32.6303H35.1521L35.4598 18.5879C35.7676 18.2801 35.857 17.883 35.8967 16.7512L35.9165 16.2548L18.7605 16.225C3.36183 16.2051 1.60453 16.225 1.54496 16.354Z" fill="#00B6BD"/>
<path d="M9.1894 18.3394C8.84191 18.6869 8.83198 18.7067 8.90148 19.3124C8.93127 19.6499 9.00076 20.1463 9.05041 20.4243C9.19933 21.1789 9.16955 22.6383 9.01069 23.3432C8.72277 24.5446 8.26607 25.2296 6.88605 26.5203C6.201 27.1656 5.33724 27.9499 4.9699 28.2776C4.61248 28.5953 4.30471 28.9031 4.30471 28.9527C4.29478 29.0718 8.49442 33.9665 8.61356 33.9665C8.67313 33.9764 8.92134 33.7679 9.15962 33.5197C9.80495 32.8644 10.9566 32.1297 11.7211 31.8815C12.2572 31.7127 12.6841 31.6631 13.9252 31.6432C15.7123 31.6135 16.8838 31.405 18.7304 30.7894C20.0708 30.3426 22.3145 29.2903 23.6052 28.5159C27.7354 26.0239 30.0486 22.7674 29.6217 20.0768C29.4132 18.7862 28.9963 18.7564 27.2985 19.918C22.6322 23.1149 18.3135 24.8523 14.6202 25.0112C13.5975 25.0509 13.4486 25.031 13.1607 24.8523C12.982 24.7431 12.7735 24.5247 12.6941 24.3658C12.6146 24.2169 12.2771 22.9461 11.9395 21.5562C11.602 20.1662 11.2644 18.8656 11.1751 18.6571C10.9765 18.2004 10.6191 17.9919 9.99359 17.9919C9.60639 17.9919 9.48725 18.0416 9.1894 18.3394Z" fill="#00B6BD"/>
<path d="M23.0593 20.0969C22.8011 20.5238 21.3715 22.0329 20.7857 22.4995C20.607 22.6484 20.4779 22.7874 20.5077 22.8172C20.5772 22.8966 22.4933 22.023 23.6053 21.3975C24.6776 20.8018 26.2363 19.8189 26.2363 19.7295C26.2363 19.6997 25.581 19.6799 24.7768 19.6799L23.3075 19.6898L23.0593 20.0969Z" fill="#00B6BD"/>
<path d="M1.37596 29.767C0.551914 30.4521 0.125 30.879 0.125 31.0081C0.125 31.2861 6.05216 38.1465 6.29044 38.1465C6.38972 38.1465 7.05491 37.6501 7.76975 37.0444C8.73279 36.2303 9.06042 35.8928 9.03063 35.7637C9.00085 35.6644 7.65061 34.0362 6.02238 32.1498C3.80838 29.5685 3.01412 28.7147 2.84534 28.7147C2.71627 28.7147 2.14043 29.1316 1.37596 29.767Z" fill="#00B6BD"/>
</svg>
