<svg width="42" height="42" viewBox="0 0 42 42" fill="none" xmlns="http://www.w3.org/2000/svg">
<path fill-rule="evenodd" clip-rule="evenodd" d="M10.4139 4.31329C11.3244 3.40275 12.1037 2.98439 13.367 2.70548C14.0314 2.56603 15.59 2.61525 16.2791 2.79571C17.0174 2.99259 18.0264 3.52579 18.5596 4.00157C18.9943 4.37892 19.6834 5.20743 19.6834 5.34689C19.6834 5.3715 19.749 5.49454 19.8311 5.60939C19.8981 5.7141 19.933 5.8787 19.9457 6.85451C19.9535 6.23171 19.962 5.87185 19.9705 5.87185C19.9869 5.87185 20.1264 6.23279 20.274 6.66756L20.5447 7.47146L20.5939 14.5672H21.1436C23.0139 14.5672 24.2854 15.732 24.4904 17.6105L24.5396 18.0945L24.2607 18.2176C23.5143 18.5293 22.7268 19.3988 22.3904 20.2929C22.2264 20.7195 22.1689 21.1625 21.4471 27.7742C21.42 28.021 21.3909 28.2865 21.3606 28.5622L21.3604 28.5648C21.2169 29.8735 21.0483 31.4123 20.9467 32.2859C20.8318 33.3441 20.7334 34.4679 20.7334 34.7879C20.7334 36.3957 21.8654 37.8476 23.4404 38.2742C23.6373 38.3234 24.1705 38.3644 24.6217 38.3644C25.0729 38.3644 25.483 38.3808 25.524 38.4054C25.6143 38.4629 25.4502 38.6844 25.3189 38.6844C25.2976 38.6844 25.2917 38.6736 25.2992 38.6561C25.2237 38.7201 25.158 38.7664 25.1385 38.7664C25.1305 38.7664 25.1233 38.7586 25.1174 38.745C25.0957 38.8411 24.9891 38.9149 24.6955 39.0617L24.2361 39.2996L19.9295 39.3488V39.3406L12.4893 39.3242L5.04082 39.2996L4.57324 39.0699C4.08105 38.8238 3.44121 38.2906 3.44121 38.1266C3.44121 38.0692 3.4084 38.0281 3.35918 38.0281C3.31816 38.0281 3.27715 37.9707 3.27715 37.9051C3.27715 37.8395 3.24434 37.782 3.19512 37.782C3.1541 37.782 3.11309 37.7164 3.11309 37.6344C3.11309 37.5524 3.09668 37.4621 3.07207 37.4375C3.02285 37.3883 3.02285 34.1152 3.07207 33.6395C3.09404 33.3319 3.17486 32.6712 3.25032 32.0544C3.25937 31.9803 3.26836 31.9069 3.27715 31.8348C3.31816 31.5149 3.37559 30.9652 3.4084 30.6043C3.43301 30.2434 3.46582 29.8742 3.47402 29.784C3.48683 29.7136 3.50963 29.4932 3.53463 29.2516C3.54165 29.1837 3.54885 29.1141 3.55605 29.0457C4.48301 20.3258 4.86035 16.9953 4.96699 16.6918C5.2377 15.8633 5.86934 15.166 6.68965 14.8051C6.97676 14.6738 7.31309 14.6082 7.88731 14.5836L8.68301 14.5426L8.71582 10.966C8.73959 8.06083 8.74184 7.28123 8.98123 6.58293C9.07237 6.31705 9.19789 6.06296 9.37207 5.70782C9.64277 5.15001 9.84785 4.87111 10.4139 4.31329ZM19.9022 28.2195C19.8914 23.037 19.8762 24.8703 19.8885 20.3914C19.8885 20.3914 19.8466 19.1262 19.8229 19.0133C19.7818 18.8738 19.7162 18.7508 19.6752 18.7508C19.626 18.7508 19.6096 18.718 19.6342 18.6852C19.6506 18.6524 19.585 18.6113 19.4783 18.6031C19.4619 18.6019 19.4451 18.6006 19.4283 18.5993C19.3359 18.5924 19.2436 18.5855 19.2158 18.5785C19.0518 18.5539 18.9369 18.5949 18.7811 18.7508C18.6252 18.9067 18.617 19.0215 18.617 22.6637C18.617 26.8063 18.5924 27.0113 18.1002 28.0121C17.7803 28.6684 16.8041 29.6856 16.1807 30.0137C15.6229 30.309 14.6139 30.5633 13.9904 30.5633C11.874 30.5551 10.0037 29.1277 9.47051 27.118C9.37207 26.757 9.34746 25.9449 9.34746 22.9508C9.34746 18.8984 9.33106 18.7262 8.90449 18.6195C8.53535 18.5293 8.28106 18.6524 8.1416 18.9723C8.03496 19.2348 8.02676 19.7844 8.05137 22.9672C8.09238 27.159 8.11699 27.3067 8.78145 28.6684C9.1916 29.4969 10.0857 30.4484 10.8979 30.9242C12.3744 31.7856 14.1955 31.966 15.8689 31.4328C17.3209 30.9734 18.4529 30.0137 19.1338 28.6848C19.3471 28.2664 19.5193 27.8645 19.5193 27.7824C19.5193 27.7004 19.5439 27.6102 19.5768 27.5774C19.6342 27.5199 19.667 27.4133 19.7326 26.9539C19.8347 26.2606 19.8805 26.3702 19.9022 28.2195ZM18.9533 7.02853C18.4365 5.634 17.526 4.71525 16.2135 4.24767C15.4752 3.99337 14.2365 3.92775 13.4982 4.10821C12.3006 4.41173 11.2014 5.27306 10.6436 6.33126C10.1104 7.34025 10.0857 7.56173 10.0857 11.2613V14.5672H19.1994L19.1747 11.0375C19.1502 7.59436 19.1498 7.54439 18.9533 7.02853ZM25.1021 38.5493C25.1183 38.4685 25.1792 38.4392 25.3123 38.4383L25.3107 38.4383C25.1462 38.4383 25.0978 38.4541 25.1021 38.5493Z" fill="#00B6BD"/>
<path fill-rule="evenodd" clip-rule="evenodd" d="M29.3713 10.761C28.2064 11.0727 27.1236 11.9504 26.6561 12.943C26.2049 13.9192 26.1639 14.2227 26.1639 16.7574V19.0789L25.8768 19.0871C25.4912 19.1035 25.0811 19.2429 25.0811 19.2429C25.0482 19.2758 25.1426 19.2122 25.0811 19.2429C25.0773 19.2448 25.0655 19.2498 25.0475 19.2575C24.9878 19.2829 24.8588 19.3377 24.7201 19.407C24.2854 19.6121 23.8752 20.0222 23.6455 20.4898C23.4486 20.8836 23.4404 20.9082 22.4314 30.1531C22.1854 32.4336 21.9803 34.5008 21.9803 34.7387C21.9803 35.6902 22.4314 36.4285 23.2846 36.8633C23.7439 37.0929 23.8916 37.1258 24.4576 37.1258L37.3037 37.1258C37.3037 37.1258 38.3059 36.7235 38.5957 36.4629C39.2665 35.8597 39.252 34.248 39.252 34.248C39.0469 30.3746 38.1568 25.0508 38.124 24.7801C38.0912 24.5094 38.042 24.05 38.0174 23.7547C38.0111 23.6983 38.0049 23.6407 37.9986 23.5836L37.9985 23.5824C37.9723 23.341 37.947 23.1092 37.9272 23.0164C37.9025 22.9016 37.8615 22.5735 37.8451 22.2781C37.7877 21.2527 37.6811 20.7606 37.4678 20.3914C37.0166 19.6367 36.344 19.1938 35.5154 19.1035L35.0232 19.0543V16.8313C35.0232 14.3375 34.9576 13.8699 34.5147 12.9512C34.0225 11.934 32.9397 11.0563 31.783 10.7527C31.176 10.5969 29.9619 10.5969 29.3713 10.761ZM31.5451 12.1473C32.1029 12.3113 32.8166 12.8363 33.1201 13.3121C33.5713 14.0094 33.6287 14.4359 33.6287 16.8805V19.0789H27.5584V16.7984C27.5584 14.2637 27.5994 13.9848 28.0752 13.2875C28.6248 12.4754 29.4861 12.0324 30.5197 12.0242C30.8561 12.0242 31.3236 12.0817 31.5451 12.1473ZM27.2057 22.1469L27.4354 22.3438L27.5174 28.2336L27.7881 28.775C28.6084 30.4402 30.774 30.9899 32.3736 29.9481C32.8658 29.6199 33.1283 29.3 33.44 28.6356L33.6697 28.1434L33.6943 25.3133C33.7025 23.4348 33.7436 22.4258 33.8092 22.3027C34.0061 21.909 34.6541 21.8844 34.851 22.2699C34.9658 22.475 34.974 27.5856 34.8674 28.1516C34.4162 30.5059 32.308 31.9906 29.9127 31.6461C28.1736 31.4 26.8119 30.1777 26.3689 28.4715C26.2705 28.0859 26.2459 27.4379 26.2459 25.2066C26.2459 23.402 26.2787 22.3766 26.3361 22.2699C26.4182 22.1141 26.6725 21.9664 26.8775 21.9582C26.935 21.95 27.0826 22.0402 27.2057 22.1469Z" fill="#00B6BD"/>
</svg>
