<svg width="38" height="36" viewBox="0 0 38 36" fill="none" xmlns="http://www.w3.org/2000/svg">
<path d="M1.21563 12.0115C0.821875 12.2576 0.625 12.6267 0.625 13.1599C0.625 13.6931 0.821875 14.0623 1.21563 14.3084C1.45352 14.4478 1.63398 14.4724 2.59375 14.4724H3.70117L4.79219 16.6463L5.875 18.8201V23.701V30.0584H8.07344C11.2563 30.0584 11.0676 30.2552 11.125 26.9002C11.166 24.6935 11.1742 24.5049 11.3383 24.2342C11.8551 23.3564 13.0199 23.3564 13.5367 24.2342C13.7008 24.5049 13.709 24.6935 13.75 26.9002C13.7992 29.5416 13.7992 29.5662 14.3488 29.8943C14.5785 30.0338 14.7672 30.0584 15.7188 30.0584C16.6703 30.0584 16.859 30.0338 17.0887 29.8943C17.6137 29.5744 17.6383 29.4677 17.6875 27.5564C17.7203 26.006 17.7449 25.801 17.9008 25.5467C18.4176 24.6689 19.5824 24.6689 20.0992 25.5467C20.2551 25.801 20.2797 26.006 20.3125 27.5564C20.3617 29.4677 20.3863 29.5744 20.9113 29.8943C21.141 30.0338 21.3297 30.0584 22.2812 30.0584C23.2328 30.0584 23.4215 30.0338 23.6512 29.8943C24.2008 29.5662 24.2008 29.5416 24.25 26.9002C24.291 24.6935 24.2992 24.5049 24.4633 24.2342C24.9801 23.3564 26.1449 23.3564 26.6617 24.2342C26.8258 24.5049 26.834 24.6935 26.875 26.9002C26.9242 29.5416 26.9242 29.5662 27.4738 29.8943C27.7035 30.0338 27.8922 30.0584 28.8438 30.0584C29.7953 30.0584 29.984 30.0338 30.2137 29.8943C30.7387 29.5744 30.7633 29.4677 30.8125 27.5564C30.8453 26.006 30.8699 25.801 31.0258 25.5467C31.5426 24.6689 32.7074 24.6689 33.2242 25.5467C33.3801 25.801 33.4047 26.006 33.4375 27.5564C33.4867 29.4677 33.5113 29.5744 34.0363 29.8943C34.2742 30.042 34.4547 30.0584 35.841 30.0584H37.375V23.865C37.375 17.7947 37.375 19.1482 37.2027 18.697C36.973 18.09 36.3824 17.4994 35.7754 17.2697C35.316 17.0974 35.3078 17.0974 21.6824 17.0974H8.04883L6.81836 14.6529C5.79297 12.6185 5.53867 12.1838 5.30898 12.0279C5.03828 11.8556 4.95625 11.8474 3.2582 11.8474C1.63398 11.8474 1.46172 11.8638 1.21563 12.0115Z" fill="#00B6BD"/>
<path d="M10.075 30.8052C8.40157 31.4532 7.94219 33.8403 9.23829 35.1446C10.2555 36.1536 11.9945 36.1536 13.0117 35.1446C14.316 33.8321 13.8484 31.4368 12.1504 30.8052C11.5434 30.5755 10.6738 30.5755 10.075 30.8052Z" fill="#00B6BD"/>
<path d="M31.075 30.8052C29.4016 31.4532 28.9422 33.8403 30.2383 35.1446C31.2555 36.1536 32.9945 36.1536 34.0117 35.1446C35.316 33.8321 34.8484 31.4368 33.1504 30.8052C32.5434 30.5755 31.6738 30.5755 31.075 30.8052Z" fill="#00B6BD"/>
<path d="M17.4226 0.0979767C17.2261 0.18294 17.0509 0.374104 16.9765 0.570578C16.9394 0.66085 16.9181 1.19186 16.9128 1.87156V3.02385L16.5305 3.20439C15.8402 3.53362 15.272 4.2558 15.118 5.00452C15.0755 5.201 15.0596 6.94802 15.0596 10.6439C15.0596 15.8903 15.0596 16.0071 15.1605 16.0602C15.2242 16.092 15.6702 16.1133 16.2384 16.1133H17.2102L17.1889 15.2106C17.173 14.207 17.2314 13.7344 17.4226 13.3573C17.5341 13.129 17.9377 12.7095 18.166 12.5821C18.2456 12.5343 18.2669 12.4228 18.304 11.9395C18.4262 10.2775 19.0475 8.70567 20.1201 7.37814L20.4228 7.00644V6.10372C20.4228 5.10542 20.3644 4.76557 20.1148 4.3089C19.8334 3.78851 19.2599 3.27874 18.766 3.09819L18.5642 3.02916V1.83969C18.5642 0.71395 18.5589 0.639609 18.4474 0.443135C18.2509 0.0926666 17.789 -0.0613251 17.4226 0.0979767Z" fill="#00B6BD"/>
<path d="M25.9875 2.32794C25.6476 2.42883 25.4087 2.58283 25.1272 2.89612C24.8352 3.22004 24.7077 3.57582 24.713 4.06966C24.7184 4.27675 24.729 4.4573 24.7449 4.47323C24.7608 4.48916 24.9945 4.46792 25.2653 4.42544C25.8972 4.32985 27.0548 4.32985 27.6867 4.42544C27.9575 4.46792 28.1912 4.48916 28.2071 4.47323C28.2761 4.39888 28.2283 3.66078 28.1381 3.40589C28.0106 3.05543 27.6071 2.61469 27.2513 2.43945C26.9061 2.26953 26.3539 2.22174 25.9875 2.32794Z" fill="#00B6BD"/>
<path d="M25.6795 5.92345C24.1237 6.11461 22.7749 6.79431 21.6704 7.94129C20.7571 8.88649 20.2048 9.9379 19.9499 11.2176C19.8172 11.8495 19.7906 12.6195 19.8862 12.7363C19.9499 12.8107 20.6137 12.8213 26.476 12.8213C32.2588 12.8213 33.0022 12.8107 33.0606 12.7416C33.1721 12.6089 33.0924 11.5203 32.9331 10.899C32.4871 9.15731 31.2605 7.56428 29.7311 6.71997C28.5204 6.0562 26.9964 5.75884 25.6795 5.92345Z" fill="#00B6BD"/>
<path d="M8.47485 6.28957C8.37396 6.39046 8.36865 6.4648 8.36865 8.403C8.36865 10.6279 8.38989 10.8032 8.70319 11.3289C8.89435 11.6475 9.17048 11.9077 9.48378 12.0564L9.69618 12.1572V13.3095V14.4671H9.4944C9.20765 14.4671 8.84656 14.6689 8.72974 14.892C8.59699 15.1522 8.6023 15.5239 8.75629 15.7469C8.98463 16.092 9.09614 16.1133 10.5139 16.1133C11.714 16.1133 11.7884 16.108 11.9848 15.9965C12.1229 15.9221 12.2291 15.8 12.3034 15.6513C12.5743 15.0937 12.1654 14.4671 11.5282 14.4671H11.3423V13.3095V12.1519L11.5335 12.0617C11.8468 11.913 12.2185 11.52 12.4096 11.1324L12.5902 10.7766L12.6061 8.57292C12.6221 6.36922 12.6221 6.36922 12.5052 6.27364C12.4043 6.19399 12.2238 6.18337 10.4874 6.18337C8.65009 6.18337 8.57575 6.18868 8.47485 6.28957Z" fill="#00B6BD"/>
<path d="M18.8508 13.9574C18.7605 14.0264 18.7499 14.1167 18.7339 14.9451C18.718 15.7097 18.7286 15.8743 18.803 15.9858L18.8826 16.1133H26.4655C32.2907 16.1133 34.0642 16.0974 34.112 16.0496C34.1545 16.0071 34.1757 15.6938 34.1757 14.9875C34.1757 14.0583 34.1704 13.9892 34.0748 13.9361C34.0058 13.899 31.5366 13.883 26.4655 13.883C20.0668 13.883 18.941 13.8937 18.8508 13.9574Z" fill="#00B6BD"/>
</svg>
